<svg xmlns="http://www.w3.org/2000/svg" version="1.1" xmlns:xlink="http://www.w3.org/1999/xlink" preserveAspectRatio="xMidYMid meet" x="0px" y="0px" width="100%" height="100%" viewBox="0 0 30 30" fit="" focusable="false">

<g transform="matrix( 1, 0, 0, 1, 0,0) ">
<g id="Layer0_0_FILL">
<path fill="#B1181E" stroke="none" d="
M 30 30.55
L 30 0.5 0 0.5 0 30.55 30 30.55 Z"></path>
</g>
</g>

<g transform="matrix( 0.156524658203125, 0.004974365234375, -0.0050048828125, 0.15576171875, 9.8,4.35) ">
<g transform="matrix( 1, 0, 0, 1, 0,0) ">
<g id="Symbol_21_0_Layer0_0_FILL">
<path fill="#B1181E" stroke="none" d="
M 43.05 42.3
Q 47 38.4 47 32.85 47 27.3 43.05 23.35 39.1 19.45 33.55 19.45 28 19.45 24.05 23.35 20.1 27.3 20.1 32.85 20.1 38.4 24.05 42.3 26.8873046875 45.1373046875 30.55 45.9
L 30.55 66.7 30.55 67.4 37.35 67.4 37.35 66.6 37.35 45.7
Q 40.5265625 44.8234375 43.05 42.3 Z"></path>

<path fill="#FFFFFF" stroke="none" d="
M 66.8 33.4
Q 66.8 19.55 57 9.75 47.25 0 33.4 0 19.55 0 9.75 9.75 0 19.55 0 33.4 0 47.25 9.75 57 18.55 65.8 30.55 66.7
L 30.55 45.9
Q 26.8873046875 45.1373046875 24.05 42.3 20.1 38.4 20.1 32.85 20.1 27.3 24.05 23.35 28 19.45 33.55 19.45 39.1 19.45 43.05 23.35 47 27.3 47 32.85 47 38.4 43.05 42.3 40.5265625 44.8234375 37.35 45.7
L 37.35 66.6
Q 48.65 65.35 57 57 66.8 47.25 66.8 33.4 Z"></path>
</g></g>
</g>

<g transform="matrix( -0.08251953125, 0.1322021484375, -0.1328582763671875, -0.08221435546875, 28.2,17.85) ">
<g transform="matrix( 1, 0, 0, 1, 0,0) ">
<g id="Symbol_21_0_Layer0_0_FILL">
<path fill="#B1181E" stroke="none" d="
M 43.05 42.3
Q 47 38.4 47 32.85 47 27.3 43.05 23.35 39.1 19.45 33.55 19.45 28 19.45 24.05 23.35 20.1 27.3 20.1 32.85 20.1 38.4 24.05 42.3 26.8873046875 45.1373046875 30.55 45.9
L 30.55 66.7 30.55 67.4 37.35 67.4 37.35 66.6 37.35 45.7
Q 40.5265625 44.8234375 43.05 42.3 Z"></path>

<path fill="#FFFFFF" stroke="none" d="
M 66.8 33.4
Q 66.8 19.55 57 9.75 47.25 0 33.4 0 19.55 0 9.75 9.75 0 19.55 0 33.4 0 47.25 9.75 57 18.55 65.8 30.55 66.7
L 30.55 45.9
Q 26.8873046875 45.1373046875 24.05 42.3 20.1 38.4 20.1 32.85 20.1 27.3 24.05 23.35 28 19.45 33.55 19.45 39.1 19.45 43.05 23.35 47 27.3 47 32.85 47 38.4 43.05 42.3 40.5265625 44.8234375 37.35 45.7
L 37.35 66.6
Q 48.65 65.35 57 57 66.8 47.25 66.8 33.4 Z"></path>
</g>
</g>
</g>

<g transform="matrix( -0.0732421875, -0.1375579833984375, 0.1381683349609375, -0.0730133056640625, 7.05,26.55) ">
<g transform="matrix( 1, 0, 0, 1, 0,0) ">
<g id="Symbol_21_0_Layer0_0_FILL">
<path fill="#B1181E" stroke="none" d="
M 43.05 42.3
Q 47 38.4 47 32.85 47 27.3 43.05 23.35 39.1 19.45 33.55 19.45 28 19.45 24.05 23.35 20.1 27.3 20.1 32.85 20.1 38.4 24.05 42.3 26.8873046875 45.1373046875 30.55 45.9
L 30.55 66.7 30.55 67.4 37.35 67.4 37.35 66.6 37.35 45.7
Q 40.5265625 44.8234375 43.05 42.3 Z"></path>

<path fill="#FFFFFF" stroke="none" d="
M 66.8 33.4
Q 66.8 19.55 57 9.75 47.25 0 33.4 0 19.55 0 9.75 9.75 0 19.55 0 33.4 0 47.25 9.75 57 18.55 65.8 30.55 66.7
L 30.55 45.9
Q 26.8873046875 45.1373046875 24.05 42.3 20.1 38.4 20.1 32.85 20.1 27.3 24.05 23.35 28 19.45 33.55 19.45 39.1 19.45 43.05 23.35 47 27.3 47 32.85 47 38.4 43.05 42.3 40.5265625 44.8234375 37.35 45.7
L 37.35 66.6
Q 48.65 65.35 57 57 66.8 47.25 66.8 33.4 Z"></path>
</g>
</g>
</g>
</svg>